<?xml version="1.0" encoding="iso-8859-1"?>
<!-- Uploaded to: SVG Repo, www.svgrepo.com, Generator: SVG Repo Mixer Tools -->
<svg fill="#000000" version="1.1" id="Layer_1" xmlns="http://www.w3.org/2000/svg" xmlns:xlink="http://www.w3.org/1999/xlink" 
	 viewBox="0 0 485 485" xml:space="preserve">
<g>
	<g>
		<g>
			<path d="M457.5,110h-50.356c1.894-5.479,2.856-11.329,2.856-17.5c0-31.706-25.794-57.5-57.5-57.5S295,60.794,295,92.5
				c0,5.954,0.92,11.861,2.695,17.5H187.144c1.894-5.479,2.856-11.329,2.856-17.5c0-31.706-25.794-57.5-57.5-57.5S75,60.794,75,92.5
				c0,5.954,0.92,11.861,2.695,17.5H27.5C12.336,110,0,122.337,0,137.5v225C0,377.663,12.336,390,27.5,390H65v60h355v-60h37.5
				c15.164,0,27.5-12.337,27.5-27.5v-225C485,122.337,472.664,110,457.5,110z M352.5,50c23.435,0,42.5,19.065,42.5,42.5
				c0,7.387-1.864,14.079-5.575,19.948c-5.095,8.218-13.685,14.575-24.189,17.901L360,132.008V245h-15V130.912l-6.533-0.85
				c-9.436-1.227-17.899-7.395-23.194-16.874C311.824,106.909,310,99.755,310,92.5C310,69.065,329.065,50,352.5,50z M397.5,260v-15
				H375v-76.92c35.246,9.929,60,42.012,60,79.42c0,45.49-37.009,82.5-82.5,82.5c-45.491,0-82.5-37.01-82.5-82.5
				c0-37.407,24.754-69.491,60-79.42V245h-22.5v15H397.5z M132.5,50c23.435,0,42.5,19.065,42.5,42.5
				c0,7.387-1.864,14.079-5.575,19.948c-5.095,8.218-13.685,14.575-24.189,17.901L140,132.008V245h-15V130.912l-6.533-0.85
				c-9.436-1.227-17.899-7.395-23.194-16.874C91.824,106.909,90,99.755,90,92.5C90,69.065,109.065,50,132.5,50z M177.5,260v-15H155
				v-76.92c35.246,9.929,60,42.012,60,79.42c0,45.49-37.009,82.5-82.5,82.5C87.009,330,50,292.99,50,247.5
				c0-37.407,24.754-69.491,60-79.42V245H87.5v15H177.5z M405,435H80v-45h325V435z M470,362.5c0,6.893-5.607,12.5-12.5,12.5H250
				v-52.5h-15V375H27.5c-6.893,0-12.5-5.607-12.5-12.5v-225c0-6.893,5.607-12.5,12.5-12.5h57.497
				c6.363,9.157,15.107,15.642,25.003,18.559v9.034c-43.818,10.339-75,49.27-75,94.907c0,53.762,43.738,97.5,97.5,97.5
				s97.5-43.738,97.5-97.5c0-45.637-31.182-84.568-75-94.907v-9.845c9.685-3.99,17.93-10.123,23.913-17.748H235v52.5h15V125h54.997
				c6.363,9.157,15.107,15.642,25.003,18.559v9.034c-43.818,10.339-75,49.27-75,94.907c0,53.762,43.738,97.5,97.5,97.5
				c53.762,0,97.5-43.738,97.5-97.5c0-45.637-31.182-84.568-75-94.907v-9.845c9.685-3.99,17.93-10.123,23.913-17.748H457.5
				c6.893,0,12.5,5.607,12.5,12.5V362.5z"/>
			<rect x="97.5" y="405" width="130" height="15"/>
			<rect x="257.5" y="405" width="130" height="15"/>
		</g>
	</g>
</g>
</svg>